<?xml version="1.0" encoding="utf-8" ?>
<svg baseProfile="full" height="210" version="1.1" viewBox="0 0 230.0 210" width="230.0" xmlns="http://www.w3.org/2000/svg" xmlns:ev="http://www.w3.org/2001/xml-events" xmlns:xlink="http://www.w3.org/1999/xlink"><defs /><ellipse cx="115.0" cy="105.0" fill="rgb(255,255,255)" fill-opacity="1" rx="50.0" ry="50.0" stroke="rgb(0,0,255)" stroke-width="0.25mm" /><defs /><polyline fill="none" fill-opacity="0" points="25.0,105.0 205.0,105.0" stroke="rgb(0,0,255)" stroke-width="0.25mm" /><defs /><polyline fill="none" fill-opacity="0" points="35.0,85.0 55.0,85.0" stroke="rgb(0,0,255)" stroke-width="0.25mm" /><defs /><polyline fill="none" fill-opacity="0" points="45.0,75.0 45.0,95.0" stroke="rgb(0,0,255)" stroke-width="0.25mm" /><defs /><polyline fill="none" fill-opacity="0" points="175.0,85.0 195.0,85.0" stroke="rgb(0,0,255)" stroke-width="0.25mm" /><defs /><polyline fill="none" fill-opacity="0" points="39.0,164.0 41.8,149.3 44.7,136.1 48.2,121.6 51.7,109.0 55.3,98.08 59.5,86.82 63.7,77.3 68.7,68.0 74.4,59.5 80.7,51.9 87.8,45.4 96.3,39.7 106.9,34.8 109.0,34.0 111.12,46.5 113.95,61.3 116.78,74.2 119.606,85.55 123.14,97.7 126.68,108.0 130.9,118.2 135.2,126.6 140.1,134.5 145.8,141.4 152.1,147.3 159.9,152.5 169.8,156.8 179.0,159.4" stroke="rgb(192,192,192)" stroke-width="0.25mm" /><defs /><g id="p"><rect fill="rgb(0,0,255)" fill-opacity="1" height="20.0" rx="0.0" ry="0.0" stroke="rgb(0,0,255)" stroke-width="0.25mm" width="20.0" x="5.0" y="95.0" /><defs /></g><g id="n"><rect fill="rgb(255,255,255)" fill-opacity="1" height="20.0" rx="0.0" ry="0.0" stroke="rgb(0,0,255)" stroke-width="0.25mm" width="20.0" x="205.0" y="95.0" /><defs /></g></svg>