<?xml version="1.0" encoding="utf-8" ?>
<svg baseProfile="full" height="245.0" version="1.1" viewBox="0 0 278.0 245.0" width="278.0" xmlns="http://www.w3.org/2000/svg" xmlns:ev="http://www.w3.org/2001/xml-events" xmlns:xlink="http://www.w3.org/1999/xlink"><defs /><polyline fill="none" fill-opacity="0" points="89.0,240.0 109.0,220.0" stroke="rgb(0,0,0)" stroke-width="0.25mm" /><defs /><polyline fill="none" fill-opacity="0" points="109.0,240.0 129.0,220.0" stroke="rgb(0,0,0)" stroke-width="0.25mm" /><defs /><polyline fill="none" fill-opacity="0" points="129.0,240.0 149.0,220.0" stroke="rgb(0,0,0)" stroke-width="0.25mm" /><defs /><polyline fill="none" fill-opacity="0" points="149.0,240.0 169.0,220.0" stroke="rgb(0,0,0)" stroke-width="0.25mm" /><defs /><polyline fill="none" fill-opacity="0" points="109.0,220.0 169.0,220.0" stroke="rgb(0,0,0)" stroke-width="0.25mm" /><defs /><ellipse cx="139.0" cy="120.0" fill="rgb(215,215,215)" fill-opacity="1" rx="70.0" ry="70.0" stroke="rgb(95,95,95)" stroke-width="0.25mm" /><defs /><polyline fill="none" fill-opacity="0" points="139.0,120.0 139.0,50.0" stroke="rgb(95,95,95)" stroke-width="0.25mm" /><defs /><polyline fill="none" fill-opacity="0" points="139.0,190.0 139.0,120.0" stroke="rgb(95,95,95)" stroke-width="0.25mm" /><defs /><polyline fill="none" fill-opacity="0" points="69.0,120.0 39.0,120.0" stroke="rgb(95,95,95)" stroke-width="0.25mm" /><defs /><polyline fill="none" fill-opacity="0" points="239.0,120.0 209.0,120.0" stroke="rgb(95,95,95)" stroke-width="0.25mm" /><defs /><polyline fill="none" fill-opacity="0" points="138.98029883319333,120.0008023964711 79.00055557500843,85.99893151427533" stroke="rgb(95,95,95)" stroke-width="0.25mm" /><defs /><polyline fill="none" fill-opacity="0" points="198.98029883319333,154.0008023964711 139.00055557500843,119.99893151427533" stroke="rgb(95,95,95)" stroke-width="0.25mm" /><defs /><polyline fill="none" fill-opacity="0" points="139.01970116680667,120.0008023964711 198.99944442499157,85.99893151427533" stroke="rgb(95,95,95)" stroke-width="0.25mm" /><defs /><polyline fill="none" fill-opacity="0" points="79.01970116680667,154.0008023964711 138.99944442499157,119.99893151427533" stroke="rgb(95,95,95)" stroke-width="0.25mm" /><defs /><ellipse cx="139.0" cy="120.0" fill="rgb(255,255,255)" fill-opacity="1" rx="20.0" ry="20.0" stroke="rgb(95,95,95)" stroke-width="0.25mm" /><defs /><g id="flange"><ellipse cx="239.0" cy="120.0" fill="rgb(255,255,255)" fill-opacity="1" rx="10.0" ry="10.0" stroke="rgb(0,0,0)" stroke-width="0.25mm" /><defs /></g><g id="support"><ellipse cx="139.0" cy="220.0" fill="rgb(95,95,95)" fill-opacity="1" rx="6.666666666666657" ry="6.666666666666686" stroke="rgb(0,0,0)" stroke-width="0.25mm" /><defs /><rect fill="rgb(192,192,192)" fill-opacity="1" height="20.0" rx="0.0" ry="0.0" stroke="rgb(192,192,192)" stroke-width="0.25mm" width="20.0" x="129.0" y="210.0" /><defs /><ellipse cx="139.0" cy="220.0" fill="rgb(95,95,95)" fill-opacity="1" rx="6.666666666666657" ry="6.666666666666686" stroke="rgb(0,0,0)" stroke-width="0.25mm" /><defs /></g><g id="y"><polygon fill="rgb(255,255,255)" fill-opacity="1" points="39.0,110.0 19.0,120.0 39.0,130.0" stroke="rgb(0,0,127)" stroke-width="0.25mm" /><defs /></g></svg>