<?xml version="1.0" encoding="utf-8" ?>
<svg baseProfile="full" height="248.0" version="1.1" viewBox="0 0 280.0 248.0" width="280.0" xmlns="http://www.w3.org/2000/svg" xmlns:ev="http://www.w3.org/2001/xml-events" xmlns:xlink="http://www.w3.org/1999/xlink"><defs /><rect fill="rgb(255,255,255)" fill-opacity="1" height="200.0" rx="0.0" ry="0.0" stroke="rgb(85,170,255)" stroke-width="0.25mm" width="200.0" x="45.0" y="5.0" /><defs /><polyline fill="none" fill-opacity="0" points="85.0,125.0 85.0,85.0 89.0,97.0 81.0,97.0 85.0,85.0" stroke="rgb(85,170,255)" stroke-width="0.25mm" /><defs /><polyline fill="none" fill-opacity="0" points="185.0,125.0 185.0,85.0 189.0,99.0 181.0,99.0 185.0,85.0" stroke="rgb(85,170,255)" stroke-width="0.25mm" /><defs /><polyline fill="none" fill-opacity="0" points="185.0,125.0 185.0,125.0 221.0,145.0 207.0,141.0 211.0,135.0 221.0,145.0" stroke="rgb(85,170,255)" stroke-width="0.25mm" /><defs /><polyline fill="none" fill-opacity="0" points="184.9991661069613,124.99953675136675 184.9991661069613,124.99953675136675 151.00009267934382,145.00111184093095 160.99962940066416,135.000648583713 164.9999073571411,141.00046327009497 151.00009267934382,145.00111184093095" stroke="rgb(85,170,255)" stroke-width="0.25mm" /><defs /><g id="u"><rect fill="rgb(160,160,164)" fill-opacity="1" height="40.0" rx="25.0" ry="25.0" stroke="rgb(160,160,164)" stroke-width="0.25mm" width="40.0" x="5.0" y="85.0" /><defs /><polygon fill="rgb(85,170,255)" fill-opacity="1" points="5.0,85.0 45.0,105.0 5.0,125.0 5.0,85.0" stroke="rgb(85,170,255)" stroke-width="0.25mm" /><defs /></g><g id="y"><rect fill="rgb(160,160,164)" fill-opacity="1" height="20.0" rx="25.0" ry="25.0" stroke="rgb(160,160,164)" stroke-width="0.25mm" width="20.0" x="245.0" y="95.0" /><defs /><polygon fill="rgb(255,255,255)" fill-opacity="1" points="245.0,95.0 265.0,105.0 245.0,115.0 245.0,95.0" stroke="rgb(85,170,255)" stroke-width="0.25mm" /><defs /></g></svg>