<?xml version="1.0" encoding="utf-8" ?>
<svg baseProfile="full" height="230.0" version="1.1" viewBox="0 0 230.0 230.0" width="230.0" xmlns="http://www.w3.org/2000/svg" xmlns:ev="http://www.w3.org/2001/xml-events" xmlns:xlink="http://www.w3.org/1999/xlink"><defs /><polygon fill="rgb(255,255,255)" fill-opacity="1" points="55.0,45.0 185.0,115.0 55.0,187.0 55.0,45.0" stroke="rgb(0,0,255)" stroke-width="0.25mm" /><defs /><polygon fill="rgb(192,192,192)" fill-opacity="1" points="35.0,25.0 27.0,47.0 43.0,47.0 35.0,25.0" stroke="rgb(192,192,192)" stroke-width="0.25mm" /><defs /><polyline fill="none" fill-opacity="0" points="35.0,37.0 35.0,205.0" stroke="rgb(192,192,192)" stroke-width="0.25mm" /><defs /><polyline fill="none" fill-opacity="0" points="35.0,195.0 195.0,35.0" stroke="rgb(0,0,127)" stroke-width="0.25mm" /><defs /><polyline fill="none" fill-opacity="0" points="25.0,195.0 197.0,195.0" stroke="rgb(192,192,192)" stroke-width="0.25mm" /><defs /><polygon fill="rgb(192,192,192)" fill-opacity="1" points="205.0,195.0 183.0,187.0 183.0,203.0 205.0,195.0" stroke="rgb(192,192,192)" stroke-width="0.25mm" /><defs /><g id="p1"><rect fill="rgb(0,0,255)" fill-opacity="1" height="20.0" rx="0.0" ry="0.0" stroke="rgb(0,0,255)" stroke-width="0.25mm" width="20.0" x="5.0" y="5.0" /><defs /></g><g id="n1"><rect fill="rgb(255,255,255)" fill-opacity="1" height="20.0" rx="0.0" ry="0.0" stroke="rgb(0,0,255)" stroke-width="0.25mm" width="20.0" x="5.0" y="205.0" /><defs /></g><g id="p2"><rect fill="rgb(0,0,255)" fill-opacity="1" height="20.0" rx="0.0" ry="0.0" stroke="rgb(0,0,255)" stroke-width="0.25mm" width="20.0" x="205.0" y="5.0" /><defs /></g><g id="n2"><rect fill="rgb(255,255,255)" fill-opacity="1" height="20.0" rx="0.0" ry="0.0" stroke="rgb(0,0,255)" stroke-width="0.25mm" width="20.0" x="205.0" y="205.0" /><defs /></g></svg>