<?xml version="1.0" encoding="utf-8" ?>
<svg baseProfile="full" height="245.0" version="1.1" viewBox="0 0 320.0 245.0" width="320.0" xmlns="http://www.w3.org/2000/svg" xmlns:ev="http://www.w3.org/2001/xml-events" xmlns:xlink="http://www.w3.org/1999/xlink"><defs /><polyline fill="none" fill-opacity="0" points="75.0,100.0 139.0,100.0" stroke="rgb(255,215,136)" stroke-width="0.25mm" /><defs /><polyline fill="none" fill-opacity="0" points="75.0,140.0 105.0,140.0" stroke="rgb(255,215,136)" stroke-width="0.25mm" /><defs /><rect fill="none" fill-opacity="0" height="24.0" rx="0.0" ry="0.0" stroke="rgb(255,215,136)" stroke-width="0.25mm" width="80.0" x="105.0" y="128.0" /><defs /><polyline fill="none" fill-opacity="0" points="185.0,140.0 215.0,140.0" stroke="rgb(255,215,136)" stroke-width="0.25mm" /><defs /><polyline fill="none" fill-opacity="0" points="151.0,84.0 151.0,116.0" stroke="rgb(255,215,136)" stroke-width="0.25mm" /><defs /><polyline fill="none" fill-opacity="0" points="151.0,100.0 215.0,100.0" stroke="rgb(255,215,136)" stroke-width="0.25mm" /><defs /><polyline fill="none" fill-opacity="0" points="139.0,84.0 139.0,116.0" stroke="rgb(255,215,136)" stroke-width="0.25mm" /><defs /><polygon fill="rgb(0,0,255)" fill-opacity="1" points="55.0,90.0 45.0,90.0 35.0,110.0 35.0,130.0 45.0,150.0 55.0,150.0 55.0,90.0" stroke="rgb(0,0,255)" stroke-width="0.25mm" /><defs /><rect fill="none" fill-opacity="0" height="120.0" rx="10.0" ry="10.0" stroke="rgb(0,0,255)" stroke-width="0.25mm" width="180.0" x="55.0" y="60.0" /><defs /><rect fill="rgb(255,255,255)" fill-opacity="1" height="80.0" rx="0.0" ry="0.0" stroke="rgb(0,0,255)" stroke-width="0.25mm" width="20.0" x="235.0" y="80.0" /><defs /><ellipse cx="145.0" cy="220.0" fill="rgb(191,0,0)" fill-opacity="1" rx="14.0" ry="14.0" stroke="rgb(191,0,0)" stroke-width="0.25mm" /><defs /><g id="p"><rect fill="rgb(0,0,255)" fill-opacity="1" height="20.0" rx="0.0" ry="0.0" stroke="rgb(0,0,255)" stroke-width="0.25mm" width="20.0" x="35.0" y="110.0" /><defs /></g><g id="n"><rect fill="rgb(255,255,255)" fill-opacity="1" height="20.0" rx="0.0" ry="0.0" stroke="rgb(0,0,255)" stroke-width="0.25mm" width="20.0" x="235.0" y="110.0" /><defs /></g><g id="stackBus"><rect fill="none" fill-opacity="0" height="0.8000000000000114" rx="0.0" ry="0.0" stroke="rgb(255,204,51)" stroke-width="0.5mm" width="8.0" x="201.0" y="199.6" /><defs /><path d="M 189.0 190.0 C 205.0 190.0 221.0 190.0 223.0 192.0 223.0 192.0 225.0 194.0 223.0 201.0 223.0 201.0 221.0 208.0 219.0 209.0 219.0 209.0 217.0 210.0 205.0 210.0 205.0 210.0 193.0 210.0 191.0 209.0 191.0 209.0 189.0 208.0 187.0 201.0 187.0 201.0 185.0 194.0 185.0 194.0" fill="rgb(255,215,136)" fill-opacity="1" stroke="rgb(0,0,0)" stroke-width="0.25mm" /><defs /><ellipse cx="193.0" cy="196.0" fill="rgb(0,0,0)" fill-opacity="1" rx="1.0" ry="1.0" stroke="rgb(0,0,0)" stroke-width="0.25mm" /><defs /><ellipse cx="205.0" cy="196.0" fill="rgb(0,0,0)" fill-opacity="1" rx="1.0" ry="1.0" stroke="rgb(0,0,0)" stroke-width="0.25mm" /><defs /><ellipse cx="217.0" cy="196.0" fill="rgb(0,0,0)" fill-opacity="1" rx="1.0" ry="1.0" stroke="rgb(0,0,0)" stroke-width="0.25mm" /><defs /><ellipse cx="199.0" cy="204.0" fill="rgb(0,0,0)" fill-opacity="1" rx="1.0" ry="1.0" stroke="rgb(0,0,0)" stroke-width="0.25mm" /><defs /><ellipse cx="211.0" cy="204.0" fill="rgb(0,0,0)" fill-opacity="1" rx="1.0" ry="1.0" stroke="rgb(0,0,0)" stroke-width="0.25mm" /><defs /></g><g id="batteryBus"><polyline fill="none" fill-opacity="0" points="83.4,199.8 86.6,199.8" stroke="rgb(255,204,51)" stroke-width="0.5mm" /><defs /><rect fill="none" fill-opacity="0" height="0.8000000000000114" rx="0.0" ry="0.0" stroke="rgb(255,204,51)" stroke-width="0.5mm" width="1.7999999999999972" x="84.0" y="199.2" /><defs /><path d="M 77.0 195.0 C 85.0 195.0 93.0 195.0 94.0 196.0 94.0 196.0 95.0 197.0 94.0 200.5 94.0 200.5 93.0 204.0 92.0 204.5 92.0 204.5 91.0 205.0 85.0 205.0 85.0 205.0 79.0 205.0 78.0 204.5 78.0 204.5 77.0 204.0 76.0 200.5 76.0 200.5 75.0 197.0 75.0 197.0" fill="rgb(255,215,136)" fill-opacity="1" stroke="rgb(0,0,0)" stroke-width="0.25mm" /><defs /><ellipse cx="80.0" cy="198.0" fill="rgb(0,0,0)" fill-opacity="1" rx="0.5" ry="0.5" stroke="rgb(0,0,0)" stroke-width="0.25mm" /><defs /><ellipse cx="90.0" cy="198.0" fill="rgb(0,0,0)" fill-opacity="1" rx="0.5" ry="0.5" stroke="rgb(0,0,0)" stroke-width="0.25mm" /><defs /><ellipse cx="85.0" cy="202.0" fill="rgb(0,0,0)" fill-opacity="1" rx="0.5" ry="0.5" stroke="rgb(0,0,0)" stroke-width="0.25mm" /><defs /><rect fill="none" fill-opacity="0" height="0.4000000000000057" rx="0.0" ry="0.0" stroke="rgb(255,215,136)" stroke-width="0.5mm" width="4.0" x="83.0" y="199.6" /><defs /></g><g id="heatPort"><rect fill="rgb(191,0,0)" fill-opacity="1" height="20.0" rx="0.0" ry="0.0" stroke="rgb(191,0,0)" stroke-width="0.25mm" width="20.0" x="135.0" y="210.0" /><defs /></g></svg>