<?xml version="1.0" encoding="utf-8" ?>
<svg baseProfile="full" height="230.0" version="1.1" viewBox="0 0 230.0 230.0" width="230.0" xmlns="http://www.w3.org/2000/svg" xmlns:ev="http://www.w3.org/2001/xml-events" xmlns:xlink="http://www.w3.org/1999/xlink"><defs /><polygon fill="rgb(255,255,255)" fill-opacity="1" points="185.0,115.0 45.0,35.0 45.0,195.0 185.0,115.0" stroke="rgb(0,0,255)" stroke-width="0.25mm" /><defs /><polyline fill="none" fill-opacity="0" points="70.0,125.0 95.0,125.0 101.0,124.0 104.0,122.0 106.0,108.0 109.0,106.0 115.0,105.0 135.0,105.0" stroke="rgb(0,0,255)" stroke-width="0.25mm" /><defs /><polyline fill="none" fill-opacity="0" points="115.0,75.0 115.0,15.0" stroke="rgb(0,0,255)" stroke-width="0.25mm" /><defs /><polyline fill="none" fill-opacity="0" points="115.0,155.0 115.0,215.0" stroke="rgb(0,0,255)" stroke-width="0.25mm" /><defs /><polyline fill="none" fill-opacity="0" points="15.0,55.0 45.0,55.0" stroke="rgb(0,0,255)" stroke-width="0.25mm" /><defs /><polyline fill="none" fill-opacity="0" points="15.0,175.0 45.0,175.0" stroke="rgb(0,0,255)" stroke-width="0.25mm" /><defs /><polyline fill="none" fill-opacity="0" points="185.0,115.0 215.0,115.0" stroke="rgb(0,0,255)" stroke-width="0.25mm" /><defs /><polyline fill="none" fill-opacity="0" points="57.0,65.0 77.0,65.0" stroke="rgb(0,0,255)" stroke-width="0.25mm" /><defs /><polyline fill="none" fill-opacity="0" points="66.0,155.0 66.0,176.0" stroke="rgb(0,0,255)" stroke-width="0.25mm" /><defs /><polyline fill="none" fill-opacity="0" points="55.0,166.0 77.0,166.0" stroke="rgb(0,0,255)" stroke-width="0.25mm" /><defs /><g id="in_p"><rect fill="rgb(0,0,255)" fill-opacity="1" height="20.0" rx="0.0" ry="0.0" stroke="rgb(0,0,255)" stroke-width="0.25mm" width="20.0" x="5.0" y="165.0" /><defs /></g><g id="in_n"><rect fill="rgb(255,255,255)" fill-opacity="1" height="20.0" rx="0.0" ry="0.0" stroke="rgb(0,0,255)" stroke-width="0.25mm" width="20.0" x="5.0" y="45.0" /><defs /></g><g id="out"><rect fill="rgb(0,0,255)" fill-opacity="1" height="20.0" rx="0.0" ry="0.0" stroke="rgb(0,0,255)" stroke-width="0.25mm" width="20.0" x="205.0" y="105.0" /><defs /></g><g id="VMax"><rect fill="rgb(0,0,255)" fill-opacity="1" height="20.0" rx="0.0" ry="0.0" stroke="rgb(0,0,255)" stroke-width="0.25mm" width="20.0" x="105.0" y="5.0" /><defs /></g><g id="VMin"><rect fill="rgb(255,255,255)" fill-opacity="1" height="20.0" rx="0.0" ry="0.0" stroke="rgb(0,0,255)" stroke-width="0.25mm" width="20.0" x="105.0" y="205.0" /><defs /></g></svg>