<?xml version="1.0" encoding="utf-8" ?>
<svg baseProfile="full" height="164.0" version="1.1" viewBox="0 0 240.0 164.0" width="240.0" xmlns="http://www.w3.org/2000/svg" xmlns:ev="http://www.w3.org/2001/xml-events" xmlns:xlink="http://www.w3.org/1999/xlink"><defs /><rect fill="url(#0)" height="20.0" rx="0.0" ry="0.0" stroke="rgb(64,64,64)" stroke-width="0.25mm" width="32.0" x="193.0" y="95.0" /><defs><linearGradient id="0" x1="0%" x2="0%" y1="0%" y2="100%"><stop offset="0" stop-color="rgb(64, 64, 64)" stop-opacity="1" /><stop offset="0.3" stop-color="rgb(192, 192, 192)" stop-opacity="1" /><stop offset="0.7" stop-color="rgb(192, 192, 192)" stop-opacity="1" /><stop offset="1" stop-color="rgb(64, 64, 64)" stop-opacity="1" /></linearGradient></defs><rect fill="url(#1)" height="100.0" rx="0.0" ry="0.0" stroke="rgb(0,0,0)" stroke-width="0.25mm" width="166.0" x="25.0" y="55.0" /><defs><linearGradient id="1" x1="0%" x2="0%" y1="0%" y2="100%"><stop offset="0" stop-color="rgb(0, 0, 0)" stop-opacity="1" /><stop offset="0.3" stop-color="rgb(175, 175, 175)" stop-opacity="1" /><stop offset="0.7" stop-color="rgb(175, 175, 175)" stop-opacity="1" /><stop offset="1" stop-color="rgb(0, 0, 0)" stop-opacity="1" /></linearGradient></defs><rect fill="rgb(95,95,95)" fill-opacity="1" height="68.0" rx="0.0" ry="0.0" stroke="rgb(0,0,0)" stroke-width="0.25mm" width="162.0" x="25.0" y="71.0" /><defs /><rect fill="url(#2)" height="108.0" rx="0.0" ry="0.0" stroke="rgb(0,0,0)" stroke-width="0.25mm" width="20.0" x="185.0" y="51.0" /><defs><linearGradient id="2" x1="0%" x2="0%" y1="0%" y2="100%"><stop offset="0" stop-color="rgb(0, 0, 0)" stop-opacity="1" /><stop offset="0.3" stop-color="rgb(160, 160, 164)" stop-opacity="1" /><stop offset="0.7" stop-color="rgb(160, 160, 164)" stop-opacity="1" /><stop offset="1" stop-color="rgb(0, 0, 0)" stop-opacity="1" /></linearGradient></defs><rect fill="none" fill-opacity="0" height="108.0" rx="0.0" ry="0.0" stroke="rgb(0,0,0)" stroke-width="0.25mm" width="20.0" x="185.0" y="51.0" /><defs /><g id="flange"><ellipse cx="225.0" cy="105.0" fill="rgb(255,255,255)" fill-opacity="1" rx="10.0" ry="10.0" stroke="rgb(0,0,0)" stroke-width="0.25mm" /><defs /></g><g id="axisControlBus"><polyline fill="none" fill-opacity="0" points="25.40044473336647,101.80005562305857 25.399555258907313,108.20005556124882" stroke="rgb(255,204,51)" stroke-width="0.5mm" /><defs /><rect fill="none" fill-opacity="0" height="3.600222333846787" rx="0.0" ry="0.0" stroke="rgb(255,204,51)" stroke-width="0.5mm" width="1.5994996551642942" x="25.000277960768486" y="103.00000001931555" /><defs /><path d="M 35.00222358957015 89.0013899583668 C 34.999999903422264 105.00138980384241 34.99777621727438 121.00138964931804 32.99749827582144 123.001111669234 32.99749827582144 123.001111669234 30.997220334368507 125.00083368914999 23.99749836274141 122.99986084577583 23.99749836274141 122.99986084577583 16.997776391114314 120.99888800240169 15.998054361540568 118.99874904133299 15.998054361540568 118.99874904133299 14.998332331966822 116.99861008026429 15.000000096577736 104.99861019615757 15.000000096577736 104.99861019615757 15.00166786118865 92.99861031205086 16.00194581229936 90.99874931175066 16.00194581229936 90.99874931175066 17.002223763410072 88.99888831145044 24.00250165657414 86.99986119345569 24.00250165657414 86.99986119345569 31.002779549738207 85.00083407546093 31.002779549738207 85.00083407546093" fill="rgb(255,215,136)" fill-opacity="1" stroke="rgb(0,0,0)" stroke-width="0.25mm" /><defs /><ellipse cx="29.00138976521133" cy="95.00055601811471" fill="rgb(0,0,0)" fill-opacity="1" rx="0.9998610099579821" ry="1.0001389707264678" stroke="rgb(0,0,0)" stroke-width="0.25mm" /><defs /><ellipse cx="28.998610157526485" cy="115.00055582495924" fill="rgb(0,0,0)" fill-opacity="1" rx="0.9998610099579821" ry="1.0001389707264678" stroke="rgb(0,0,0)" stroke-width="0.25mm" /><defs /><ellipse cx="21.000000038631093" cy="104.99944407846303" fill="rgb(0,0,0)" fill-opacity="1" rx="0.9998610099579892" ry="1.0001389707264678" stroke="rgb(0,0,0)" stroke-width="0.25mm" /><defs /><rect fill="none" fill-opacity="0" height="8.0001111070452" rx="0.0" ry="0.0" stroke="rgb(255,215,136)" stroke-width="0.5mm" width="0.7988881491998399" x="25.00055592153697" y="101.0000000386311" /><defs /></g></svg>