<?xml version="1.0" encoding="utf-8" ?>
<svg baseProfile="full" height="266.0" version="1.1" viewBox="0 0 242.0 266.0" width="242.0" xmlns="http://www.w3.org/2000/svg" xmlns:ev="http://www.w3.org/2001/xml-events" xmlns:xlink="http://www.w3.org/1999/xlink"><defs /><polygon fill="rgb(192,192,192)" fill-opacity="1" points="61.0,181.0 61.0,57.0 181.0,57.0 181.0,181.0 221.0,181.0 221.0,7.0 21.0,7.0 21.0,181.0 61.0,181.0" stroke="rgb(0,0,0)" stroke-width="0.25mm" /><defs /><rect fill="url(#0)" height="76.0" rx="0.0" ry="0.0" stroke="rgb(0,0,0)" stroke-width="0.25mm" width="116.0" x="63.0" y="68.0" /><defs><linearGradient id="0" x1="0%" x2="100%" y1="0%" y2="0%"><stop offset="0" stop-color="rgb(0, 0, 0)" stop-opacity="1" /><stop offset="0.3" stop-color="rgb(192, 192, 192)" stop-opacity="1" /><stop offset="0.7" stop-color="rgb(192, 192, 192)" stop-opacity="1" /><stop offset="1" stop-color="rgb(0, 0, 0)" stop-opacity="1" /></linearGradient></defs><rect fill="rgb(0,0,0)" fill-opacity="1" height="6.0" rx="0.0" ry="0.0" stroke="rgb(0,0,0)" stroke-width="0.25mm" width="120.0" x="61.0" y="76.0" /><defs /><rect fill="rgb(0,0,0)" fill-opacity="1" height="6.0" rx="0.0" ry="0.0" stroke="rgb(0,0,0)" stroke-width="0.25mm" width="120.0" x="61.0" y="90.0" /><defs /><rect fill="rgb(0,0,0)" fill-opacity="1" height="6.0" rx="0.0" ry="0.0" stroke="rgb(0,0,0)" stroke-width="0.25mm" width="120.0" x="61.0" y="102.0" /><defs /><polygon fill="rgb(255,255,255)" fill-opacity="1" points="64.0,144.0 81.0,132.0 161.0,132.0 178.0,144.0 64.0,144.0" /><defs /><ellipse cx="119.0" cy="121.0" fill="rgb(0,0,0)" fill-opacity="1" rx="6.0" ry="6.0" stroke="rgb(0,0,0)" stroke-width="0.25mm" /><defs /><ellipse cx="121.0" cy="221.0" fill="none" fill-opacity="0" rx="40.0" ry="40.0" stroke="rgb(192,192,192)" stroke-width="0.25mm" /><defs /><polyline fill="none" fill-opacity="0" points="121.0,221.0 147.0,191.0 119.0,121.0" stroke="rgb(0,0,0)" stroke-width="1.0mm" /><defs /><polyline fill="none" fill-opacity="0" points="21.0,221.0 221.0,221.0" stroke="rgb(0,0,0)" stroke-width="0.5mm" /><defs /><g id="cylinder_a"><rect fill="none" fill-opacity="0" height="3.1999999999999886" rx="0.0" ry="0.0" stroke="rgb(95,95,95)" stroke-width="0.5mm" width="3.1999999999999886" x="19.400000000000006" y="19.400000000000006" /><defs /><rect fill="rgb(192,192,192)" fill-opacity="1" height="32.0" rx="0.0" ry="0.0" stroke="rgb(0,0,0)" stroke-width="0.25mm" width="9.599999999999994" x="16.200000000000003" y="5.0" /><defs /></g><g id="cylinder_b"><rect fill="none" fill-opacity="0" height="3.1999999999999886" rx="0.0" ry="0.0" stroke="rgb(95,95,95)" stroke-width="0.5mm" width="3.1999999999999886" x="219.4" y="19.400000000000006" /><defs /><rect fill="rgb(192,192,192)" fill-opacity="1" height="32.0" rx="0.0" ry="0.0" stroke="rgb(0,0,0)" stroke-width="0.25mm" width="9.600000000000023" x="216.2" y="5.0" /><defs /></g><g id="crank_a"><rect fill="none" fill-opacity="0" height="3.1999999999999886" rx="0.0" ry="0.0" stroke="rgb(95,95,95)" stroke-width="0.5mm" width="3.1999999999999886" x="19.400000000000006" y="219.4" /><defs /><rect fill="rgb(192,192,192)" fill-opacity="1" height="32.0" rx="0.0" ry="0.0" stroke="rgb(0,0,0)" stroke-width="0.25mm" width="9.599999999999994" x="16.200000000000003" y="205.0" /><defs /></g><g id="crank_b"><rect fill="none" fill-opacity="0" height="3.1999999999999886" rx="0.0" ry="0.0" stroke="rgb(95,95,95)" stroke-width="0.5mm" width="3.1999999999999886" x="219.4" y="219.4" /><defs /><rect fill="rgb(192,192,192)" fill-opacity="1" height="32.0" rx="0.0" ry="0.0" stroke="rgb(0,0,0)" stroke-width="0.25mm" width="9.600000000000023" x="216.2" y="205.0" /><defs /></g></svg>