<?xml version="1.0" encoding="utf-8" ?>
<svg baseProfile="full" height="220.0" version="1.1" viewBox="0 0 270.0 220.0" width="270.0" xmlns="http://www.w3.org/2000/svg" xmlns:ev="http://www.w3.org/2001/xml-events" xmlns:xlink="http://www.w3.org/1999/xlink"><defs /><ellipse cx="35.0" cy="115.0" fill="none" fill-opacity="0" rx="30.0" ry="30.0" stroke="rgb(255,0,0)" stroke-width="0.25mm" /><defs /><ellipse cx="235.0" cy="115.0" fill="none" fill-opacity="0" rx="30.0" ry="30.0" stroke="rgb(255,0,0)" stroke-width="0.25mm" /><defs /><ellipse cx="80.0" cy="115.0" fill="url(#0)" rx="40.0" ry="40.0" stroke="rgb(0,0,0)" stroke-width="0.25mm" /><defs><radialGradient cx="50%" cy="50%" fx="50%" fy="50%" id="0" r="55%"><stop offset="0" stop-color="rgb(192, 192, 192)" stop-opacity="1" /><stop offset="0.45" stop-color="rgb(153, 153, 153)" stop-opacity="1" /><stop offset="0.7" stop-color="rgb(115, 115, 115)" stop-opacity="1" /><stop offset="1" stop-color="rgb(0, 0, 0)" stop-opacity="1" /></radialGradient></defs><ellipse cx="80.0" cy="115.0" fill="rgb(255,255,255)" fill-opacity="1" rx="30.0" ry="30.0" stroke="rgb(0,0,0)" stroke-width="0.25mm" /><defs /><ellipse cx="190.0" cy="115.0" fill="url(#1)" rx="40.0" ry="40.0" stroke="rgb(0,0,0)" stroke-width="0.25mm" /><defs><radialGradient cx="50%" cy="50%" fx="50%" fy="50%" id="1" r="55%"><stop offset="0" stop-color="rgb(192, 192, 192)" stop-opacity="1" /><stop offset="0.45" stop-color="rgb(153, 153, 153)" stop-opacity="1" /><stop offset="0.7" stop-color="rgb(115, 115, 115)" stop-opacity="1" /><stop offset="1" stop-color="rgb(0, 0, 0)" stop-opacity="1" /></radialGradient></defs><ellipse cx="188.0" cy="115.5" fill="rgb(255,255,255)" fill-opacity="1" rx="30.0" ry="29.5" stroke="rgb(128,128,128)" stroke-width="0.25mm" /><defs /><rect fill="rgb(255,255,255)" fill-opacity="1" height="81.0" rx="0.0" ry="0.0" stroke="rgb(255,255,255)" stroke-width="0.25mm" width="84.0" x="95.0" y="74.0" /><defs /><ellipse cx="79.5" cy="114.0" fill="url(#2)" rx="14.5" ry="14.0" stroke="rgb(0,0,0)" stroke-width="0.25mm" /><defs><radialGradient cx="50%" cy="50%" fx="50%" fy="50%" id="2" r="55%"><stop offset="0" stop-color="rgb(192, 192, 192)" stop-opacity="1" /><stop offset="0.45" stop-color="rgb(153, 153, 153)" stop-opacity="1" /><stop offset="0.7" stop-color="rgb(115, 115, 115)" stop-opacity="1" /><stop offset="1" stop-color="rgb(0, 0, 0)" stop-opacity="1" /></radialGradient></defs><ellipse cx="189.5" cy="115.0" fill="url(#3)" rx="14.5" ry="14.0" stroke="rgb(0,0,0)" stroke-width="0.25mm" /><defs><radialGradient cx="50%" cy="50%" fx="50%" fy="50%" id="3" r="55%"><stop offset="0" stop-color="rgb(192, 192, 192)" stop-opacity="1" /><stop offset="0.45" stop-color="rgb(153, 153, 153)" stop-opacity="1" /><stop offset="0.7" stop-color="rgb(115, 115, 115)" stop-opacity="1" /><stop offset="1" stop-color="rgb(0, 0, 0)" stop-opacity="1" /></radialGradient></defs><polyline fill="none" fill-opacity="0" points="79.0,115.0 79.0,92.0 105.0,92.0 105.0,45.0 75.0,45.0 75.0,14.0" stroke="rgb(0,0,0)" stroke-width="0.25mm" /><defs /><polyline fill="none" fill-opacity="0" points="190.0,116.0 190.0,95.0 165.0,95.0 165.0,45.0 195.0,45.0 195.0,15.0" stroke="rgb(0,0,0)" stroke-width="0.25mm" /><defs /><polyline fill="none" fill-opacity="0" points="79.0,115.0 190.0,116.0" stroke="rgb(0,0,0)" stroke-dasharray="1.0 2.0" stroke-width="0.25mm" /><defs /><ellipse cx="135.0" cy="115.0" fill="rgb(0,0,0)" fill-opacity="1" rx="8.0" ry="8.0" stroke="rgb(0,0,0)" stroke-width="0.25mm" /><defs /><ellipse cx="35.0" cy="115.0" fill="none" fill-opacity="0" rx="30.0" ry="30.0" stroke="rgb(255,0,0)" stroke-width="0.25mm" /><defs /><ellipse cx="235.0" cy="115.0" fill="none" fill-opacity="0" rx="30.0" ry="30.0" stroke="rgb(255,0,0)" stroke-width="0.25mm" /><defs /><g id="frame_a"><rect fill="none" fill-opacity="0" height="3.1999999999999886" rx="0.0" ry="0.0" stroke="rgb(95,95,95)" stroke-width="0.5mm" width="3.1999999999999886" x="33.400000000000006" y="113.4" /><defs /><rect fill="rgb(192,192,192)" fill-opacity="1" height="32.0" rx="0.0" ry="0.0" stroke="rgb(0,0,0)" stroke-width="0.25mm" width="9.599999999999994" x="30.200000000000003" y="99.0" /><defs /></g><g id="frame_b"><rect fill="none" fill-opacity="0" height="3.1999999999999886" rx="0.0" ry="0.0" stroke="rgb(95,95,95)" stroke-width="0.5mm" width="3.1999999999999886" x="233.4" y="113.4" /><defs /><rect fill="rgb(255,255,255)" fill-opacity="1" height="32.0" rx="0.0" ry="0.0" stroke="rgb(0,0,0)" stroke-width="0.25mm" width="9.600000000000023" x="230.2" y="99.0" /><defs /></g><g id="flange_b"><rect fill="rgb(0,127,0)" fill-opacity="1" height="20.00092651443589" rx="0.0" ry="0.0" stroke="rgb(0,127,0)" stroke-width="0.25mm" width="19.99907344264068" x="185.00046327867966" y="4.999536742782055" /><defs /></g><g id="flange_a"><rect fill="rgb(255,255,255)" fill-opacity="1" height="20.00092651443589" rx="0.0" ry="0.0" stroke="rgb(0,127,0)" stroke-width="0.25mm" width="19.99907344264068" x="65.00046327867966" y="4.999536742782055" /><defs /></g></svg>