<?xml version="1.0" encoding="utf-8" ?>
<svg baseProfile="full" height="220.0" version="1.1" viewBox="0 0 290.0 220.0" width="290.0" xmlns="http://www.w3.org/2000/svg" xmlns:ev="http://www.w3.org/2001/xml-events" xmlns:xlink="http://www.w3.org/1999/xlink"><defs /><rect fill="rgb(192,192,192)" fill-opacity="1" height="20.0" rx="0.0" ry="0.0" stroke="rgb(64,64,64)" stroke-width="0.25mm" width="40.0" x="115.0" y="105.0" /><defs /><rect fill="url(#0)" height="120.0" rx="10.0" ry="10.0" stroke="rgb(64,64,64)" stroke-width="0.25mm" width="70.0" x="45.0" y="55.0" /><defs><linearGradient id="0" x1="0%" x2="0%" y1="0%" y2="100%"><stop offset="0" stop-color="rgb(64, 64, 64)" stop-opacity="1" /><stop offset="0.3" stop-color="rgb(255, 255, 255)" stop-opacity="1" /><stop offset="0.7" stop-color="rgb(255, 255, 255)" stop-opacity="1" /><stop offset="1" stop-color="rgb(64, 64, 64)" stop-opacity="1" /></linearGradient></defs><rect fill="url(#1)" height="120.0" rx="10.0" ry="10.0" stroke="rgb(64,64,64)" stroke-width="0.25mm" width="70.0" x="175.0" y="55.0" /><defs><linearGradient id="1" x1="0%" x2="0%" y1="0%" y2="100%"><stop offset="0" stop-color="rgb(64, 64, 64)" stop-opacity="1" /><stop offset="0.3" stop-color="rgb(255, 255, 255)" stop-opacity="1" /><stop offset="0.7" stop-color="rgb(255, 255, 255)" stop-opacity="1" /><stop offset="1" stop-color="rgb(64, 64, 64)" stop-opacity="1" /></linearGradient></defs><rect fill="none" fill-opacity="0" height="120.0" rx="10.0" ry="10.0" stroke="rgb(64,64,64)" stroke-width="0.25mm" width="70.0" x="45.0" y="55.0" /><defs /><rect fill="none" fill-opacity="0" height="120.0" rx="10.0" ry="10.0" stroke="rgb(64,64,64)" stroke-width="0.25mm" width="70.0" x="175.0" y="55.0" /><defs /><polyline fill="none" fill-opacity="0" points="85.0,55.0 85.0,25.0" stroke="rgb(0,0,0)" stroke-width="0.25mm" /><defs /><polyline fill="none" fill-opacity="0" points="125.0,45.0 85.0,45.0" stroke="rgb(0,0,0)" stroke-width="0.25mm" /><defs /><polyline fill="none" fill-opacity="0" points="125.0,35.0 125.0,55.0" stroke="rgb(0,0,0)" stroke-width="0.25mm" /><defs /><polyline fill="none" fill-opacity="0" points="165.0,35.0 165.0,55.0" stroke="rgb(0,0,0)" stroke-width="0.25mm" /><defs /><polyline fill="none" fill-opacity="0" points="165.0,45.0 186.0,45.0" stroke="rgb(0,0,0)" stroke-width="0.25mm" /><defs /><polygon fill="rgb(192,192,192)" fill-opacity="1" points="136.0,85.0 155.0,85.0 175.0,65.0 116.0,65.0 136.0,85.0" stroke="rgb(64,64,64)" stroke-width="0.25mm" /><defs /><polygon fill="rgb(192,192,192)" fill-opacity="1" points="155.0,85.0 175.0,65.0 175.0,166.0 155.0,146.0 155.0,85.0" stroke="rgb(64,64,64)" stroke-width="0.25mm" /><defs /><rect fill="url(#2)" height="40.0" rx="0.0" ry="0.0" stroke="rgb(64,64,64)" stroke-width="0.25mm" width="20.0" x="135.0" y="25.0" /><defs><linearGradient id="2" x1="0%" x2="100%" y1="0%" y2="0%"><stop offset="0" stop-color="rgb(64, 64, 64)" stop-opacity="1" /><stop offset="0.3" stop-color="rgb(192, 192, 192)" stop-opacity="1" /><stop offset="0.7" stop-color="rgb(192, 192, 192)" stop-opacity="1" /><stop offset="1" stop-color="rgb(64, 64, 64)" stop-opacity="1" /></linearGradient></defs><g id="frame_a"><rect fill="none" fill-opacity="0" height="3.1999999999999886" rx="0.0" ry="0.0" stroke="rgb(95,95,95)" stroke-width="0.5mm" width="3.1999999999999886" x="43.400000000000006" y="113.4" /><defs /><rect fill="rgb(192,192,192)" fill-opacity="1" height="32.0" rx="0.0" ry="0.0" stroke="rgb(0,0,0)" stroke-width="0.25mm" width="9.599999999999994" x="40.2" y="99.0" /><defs /></g><g id="frame_b"><rect fill="none" fill-opacity="0" height="3.1999999999999886" rx="0.0" ry="0.0" stroke="rgb(95,95,95)" stroke-width="0.5mm" width="3.1999999999999886" x="243.4" y="113.4" /><defs /><rect fill="rgb(255,255,255)" fill-opacity="1" height="32.0" rx="0.0" ry="0.0" stroke="rgb(0,0,0)" stroke-width="0.25mm" width="9.600000000000023" x="240.2" y="99.0" /><defs /></g><g id="axis"><ellipse cx="145.0" cy="15.0" fill="rgb(95,95,95)" fill-opacity="1" rx="10.0" ry="10.0" stroke="rgb(0,0,0)" stroke-width="0.25mm" /><defs /></g><g id="bearing"><ellipse cx="85.0" cy="15.0" fill="rgb(255,255,255)" fill-opacity="1" rx="10.0" ry="10.0" stroke="rgb(0,0,0)" stroke-width="0.25mm" /><defs /></g><g id="position_a"><polygon fill="rgb(0,0,127)" fill-opacity="1" points="5.0,155.0 45.0,175.0 5.0,195.0" stroke="rgb(0,0,127)" stroke-width="0.25mm" /><defs /></g><g id="position_b"><polygon fill="rgb(0,0,127)" fill-opacity="1" points="285.0,155.0 245.0,175.0 285.0,195.0" stroke="rgb(0,0,127)" stroke-width="0.25mm" /><defs /></g></svg>