<?xml version="1.0" encoding="utf-8" ?>
<svg baseProfile="full" height="220.0" version="1.1" viewBox="0 0 246.0 220.0" width="246.0" xmlns="http://www.w3.org/2000/svg" xmlns:ev="http://www.w3.org/2001/xml-events" xmlns:xlink="http://www.w3.org/1999/xlink"><defs /><rect fill="rgb(175,175,175)" fill-opacity="1" height="20.0" rx="0.0" ry="0.0" stroke="rgb(0,0,0)" stroke-width="0.25mm" width="200.0" x="23.0" y="195.0" /><defs /><ellipse cx="203.0" cy="115.0" fill="rgb(255,255,255)" fill-opacity="1" rx="38.0" ry="80.0" stroke="rgb(0,0,0)" stroke-width="0.25mm" /><defs /><polyline fill="none" fill-opacity="0" points="209.0,91.0 187.0,91.0 187.0,103.0 179.0,103.0" stroke="rgb(0,0,0)" stroke-width="0.25mm" /><defs /><polyline fill="none" fill-opacity="0" points="209.0,139.0 187.0,139.0 187.0,127.0 179.0,127.0" stroke="rgb(0,0,0)" stroke-width="0.25mm" /><defs /><polyline fill="none" fill-opacity="0" points="223.0,15.0 203.0,15.0 203.0,117.0" stroke="rgb(0,0,0)" stroke-width="0.25mm" /><defs /><polyline fill="none" fill-opacity="0" points="123.0,39.0 123.0,111.0" stroke="rgb(0,0,0)" stroke-width="0.25mm" /><defs /><polygon fill="rgb(255,255,255)" fill-opacity="1" points="61.0,109.0 187.0,109.0 187.0,121.0 129.0,121.0 129.0,135.0 117.0,135.0 117.0,121.0 61.0,121.0 61.0,109.0" stroke="rgb(0,0,0)" stroke-width="0.25mm" /><defs /><ellipse cx="43.0" cy="115.0" fill="rgb(255,255,255)" fill-opacity="1" rx="38.0" ry="80.0" stroke="rgb(0,0,0)" stroke-width="0.25mm" /><defs /><polyline fill="none" fill-opacity="0" points="27.0,15.0 43.0,15.0 43.0,111.0" stroke="rgb(0,0,0)" stroke-width="0.25mm" /><defs /><g id="frameMiddle"><rect fill="none" fill-opacity="0" height="3.1998517508225177" rx="0.0" ry="0.0" stroke="rgb(95,95,95)" stroke-width="0.5mm" width="3.2001482423097514" x="121.39992587884512" y="133.40007412458874" /><defs /><rect fill="rgb(192,192,192)" fill-opacity="1" height="9.598517532262235" rx="0.0" ry="0.0" stroke="rgb(0,0,0)" stroke-width="0.25mm" width="32.00044470289208" x="106.99977764855396" y="130.20074123386888" /><defs /></g><g id="frame1"><rect fill="none" fill-opacity="0" height="3.1999999999999886" rx="0.0" ry="0.0" stroke="rgb(95,95,95)" stroke-width="0.5mm" width="3.1999999999999886" x="41.400000000000006" y="113.4" /><defs /><rect fill="rgb(192,192,192)" fill-opacity="1" height="32.0" rx="0.0" ry="0.0" stroke="rgb(0,0,0)" stroke-width="0.25mm" width="9.599999999999994" x="38.2" y="99.0" /><defs /></g><g id="frame2"><rect fill="none" fill-opacity="0" height="3.1999999999999886" rx="0.0" ry="0.0" stroke="rgb(95,95,95)" stroke-width="0.5mm" width="3.1999999999999886" x="201.4" y="113.4" /><defs /><rect fill="rgb(255,255,255)" fill-opacity="1" height="32.0" rx="0.0" ry="0.0" stroke="rgb(0,0,0)" stroke-width="0.25mm" width="9.600000000000023" x="198.2" y="99.0" /><defs /></g><g id="axis1"><ellipse cx="23.0" cy="15.0" fill="rgb(95,95,95)" fill-opacity="1" rx="10.0" ry="10.0" stroke="rgb(0,0,0)" stroke-width="0.25mm" /><defs /></g><g id="axis2"><ellipse cx="223.0" cy="15.0" fill="rgb(95,95,95)" fill-opacity="1" rx="10.0" ry="10.0" stroke="rgb(0,0,0)" stroke-width="0.25mm" /><defs /></g><g id="support"><ellipse cx="123.0" cy="35.0" fill="rgb(255,255,255)" fill-opacity="1" rx="10.0" ry="10.0" stroke="rgb(0,0,0)" stroke-width="0.25mm" /><defs /></g></svg>