<?xml version="1.0" encoding="utf-8" ?>
<svg baseProfile="full" height="230.0" version="1.1" viewBox="0 0 230.0 230.0" width="230.0" xmlns="http://www.w3.org/2000/svg" xmlns:ev="http://www.w3.org/2001/xml-events" xmlns:xlink="http://www.w3.org/1999/xlink"><defs /><polyline fill="none" fill-opacity="0" points="65.0,225.0 85.0,205.0" stroke="rgb(0,127,0)" stroke-width="0.25mm" /><defs /><polyline fill="none" fill-opacity="0" points="85.0,225.0 105.0,205.0" stroke="rgb(0,127,0)" stroke-width="0.25mm" /><defs /><polyline fill="none" fill-opacity="0" points="105.0,225.0 125.0,205.0" stroke="rgb(0,127,0)" stroke-width="0.25mm" /><defs /><polyline fill="none" fill-opacity="0" points="125.0,225.0 145.0,205.0" stroke="rgb(0,127,0)" stroke-width="0.25mm" /><defs /><polyline fill="none" fill-opacity="0" points="85.0,205.0 145.0,205.0" stroke="rgb(0,127,0)" stroke-width="0.25mm" /><defs /><polygon fill="rgb(131,175,131)" fill-opacity="1" points="65.0,155.0 105.0,195.0 105.0,205.0 125.0,205.0 125.0,195.0 165.0,155.0 65.0,155.0" stroke="rgb(95,95,95)" stroke-width="0.25mm" /><defs /><ellipse cx="77.0" cy="125.0" fill="url(#0)" rx="10.0" ry="10.0" stroke="rgb(0,127,0)" stroke-width="0.25mm" /><defs><radialGradient cx="50%" cy="50%" fx="50%" fy="50%" id="0" r="55%"><stop offset="0" stop-color="rgb(255, 255, 255)" stop-opacity="1" /><stop offset="0.45" stop-color="rgb(204, 229, 204)" stop-opacity="1" /><stop offset="0.7" stop-color="rgb(153, 203, 153)" stop-opacity="1" /><stop offset="1" stop-color="rgb(0, 127, 0)" stop-opacity="1" /></radialGradient></defs><ellipse cx="115.0" cy="125.0" fill="url(#1)" rx="10.0" ry="10.0" stroke="rgb(0,127,0)" stroke-width="0.25mm" /><defs><radialGradient cx="50%" cy="50%" fx="50%" fy="50%" id="1" r="55%"><stop offset="0" stop-color="rgb(255, 255, 255)" stop-opacity="1" /><stop offset="0.45" stop-color="rgb(204, 229, 204)" stop-opacity="1" /><stop offset="0.7" stop-color="rgb(153, 203, 153)" stop-opacity="1" /><stop offset="1" stop-color="rgb(0, 127, 0)" stop-opacity="1" /></radialGradient></defs><ellipse cx="155.0" cy="125.0" fill="url(#2)" rx="10.0" ry="10.0" stroke="rgb(0,127,0)" stroke-width="0.25mm" /><defs><radialGradient cx="50%" cy="50%" fx="50%" fy="50%" id="2" r="55%"><stop offset="0" stop-color="rgb(255, 255, 255)" stop-opacity="1" /><stop offset="0.45" stop-color="rgb(204, 229, 204)" stop-opacity="1" /><stop offset="0.7" stop-color="rgb(153, 203, 153)" stop-opacity="1" /><stop offset="1" stop-color="rgb(0, 127, 0)" stop-opacity="1" /></radialGradient></defs><ellipse cx="75.0" cy="85.0" fill="url(#3)" rx="10.0" ry="10.0" stroke="rgb(0,127,0)" stroke-width="0.25mm" /><defs><radialGradient cx="50%" cy="50%" fx="50%" fy="50%" id="3" r="55%"><stop offset="0" stop-color="rgb(255, 255, 255)" stop-opacity="1" /><stop offset="0.45" stop-color="rgb(204, 229, 204)" stop-opacity="1" /><stop offset="0.7" stop-color="rgb(153, 203, 153)" stop-opacity="1" /><stop offset="1" stop-color="rgb(0, 127, 0)" stop-opacity="1" /></radialGradient></defs><ellipse cx="115.0" cy="85.0" fill="url(#4)" rx="10.0" ry="10.0" stroke="rgb(0,127,0)" stroke-width="0.25mm" /><defs><radialGradient cx="50%" cy="50%" fx="50%" fy="50%" id="4" r="55%"><stop offset="0" stop-color="rgb(255, 255, 255)" stop-opacity="1" /><stop offset="0.45" stop-color="rgb(204, 229, 204)" stop-opacity="1" /><stop offset="0.7" stop-color="rgb(153, 203, 153)" stop-opacity="1" /><stop offset="1" stop-color="rgb(0, 127, 0)" stop-opacity="1" /></radialGradient></defs><ellipse cx="155.0" cy="85.0" fill="url(#5)" rx="10.0" ry="10.0" stroke="rgb(0,127,0)" stroke-width="0.25mm" /><defs><radialGradient cx="50%" cy="50%" fx="50%" fy="50%" id="5" r="55%"><stop offset="0" stop-color="rgb(255, 255, 255)" stop-opacity="1" /><stop offset="0.45" stop-color="rgb(204, 229, 204)" stop-opacity="1" /><stop offset="0.7" stop-color="rgb(153, 203, 153)" stop-opacity="1" /><stop offset="1" stop-color="rgb(0, 127, 0)" stop-opacity="1" /></radialGradient></defs><rect fill="rgb(160,215,160)" fill-opacity="1" height="20.0" rx="0.0" ry="0.0" stroke="rgb(0,127,0)" stroke-width="0.25mm" width="180.0" x="25.0" y="95.0" /><defs /><polygon fill="rgb(131,175,131)" fill-opacity="1" points="55.0,75.0 175.0,75.0 175.0,85.0 195.0,85.0 195.0,55.0 35.0,55.0 35.0,85.0 55.0,85.0 55.0,75.0" stroke="rgb(95,95,95)" stroke-width="0.25mm" /><defs /><polyline fill="none" fill-opacity="0" points="15.0,205.0 15.0,125.0 115.0,125.0" stroke="rgb(191,0,0)" stroke-dasharray="1.0 2.0" stroke-width="0.25mm" /><defs /><polygon fill="rgb(131,175,131)" fill-opacity="1" points="55.0,135.0 175.0,135.0 175.0,125.0 195.0,125.0 195.0,155.0 35.0,155.0 35.0,125.0 55.0,125.0 55.0,135.0" stroke="rgb(95,95,95)" stroke-width="0.25mm" /><defs /><g id="heatPort"><rect fill="rgb(191,0,0)" fill-opacity="1" height="20.0" rx="0.0" ry="0.0" stroke="rgb(191,0,0)" stroke-width="0.25mm" width="20.0" x="5.0" y="195.0" /><defs /></g><g id="flange_a"><rect fill="rgb(0,127,0)" fill-opacity="1" height="20.0" rx="0.0" ry="0.0" stroke="rgb(0,127,0)" stroke-width="0.25mm" width="20.0" x="5.0" y="95.0" /><defs /></g><g id="flange_b"><rect fill="rgb(255,255,255)" fill-opacity="1" height="20.0" rx="0.0" ry="0.0" stroke="rgb(0,127,0)" stroke-width="0.25mm" width="20.0" x="205.0" y="95.0" /><defs /></g><g id="support"><rect fill="rgb(175,175,175)" fill-opacity="1" height="12.0" rx="0.0" ry="0.0" stroke="rgb(0,127,0)" stroke-width="0.25mm" width="12.0" x="109.0" y="199.0" /><defs /><rect fill="rgb(175,190,175)" fill-opacity="1" height="20.0" rx="0.0" ry="0.0" width="20.0" x="105.0" y="195.0" /><defs /><rect fill="rgb(0,127,0)" fill-opacity="1" height="12.0" rx="0.0" ry="0.0" stroke="rgb(0,127,0)" stroke-width="0.25mm" width="12.0" x="109.0" y="199.0" /><defs /></g></svg>